<svg width="320" height="277" viewBox="0 0 320 277" fill="none" xmlns="http://www.w3.org/2000/svg">
<path d="M174.02 231.591C246.281 231.591 304.861 189.833 304.861 138.323C304.861 86.8129 246.281 45.0557 174.02 45.0557C101.759 45.0557 43.1797 86.8129 43.1797 138.323C43.1797 189.833 101.759 231.591 174.02 231.591Z" fill="#F5F5FF"/>
<path fill-rule="evenodd" clip-rule="evenodd" d="M202.353 192.171C202.502 192.962 202.844 193.685 203.378 194.339C203.892 194.894 204.559 195.209 205.381 195.285C204.578 195.358 203.921 195.664 203.409 196.204C202.848 196.855 202.501 197.587 202.368 198.399C202.229 197.59 201.882 196.858 201.327 196.204C200.81 195.673 200.153 195.366 199.356 195.285C200.392 195.171 201.165 194.718 201.674 193.927C202.024 193.377 202.25 192.792 202.353 192.171Z" fill="#0C1844"/>
<path fill-rule="evenodd" clip-rule="evenodd" d="M78.3648 235.964C78.5108 236.77 78.8628 237.501 79.4215 238.159C79.9366 238.691 80.5937 238.988 81.393 239.05C80.5713 239.126 79.9035 239.442 79.39 239.997C78.8446 240.633 78.508 241.346 78.3805 242.137C78.2263 241.366 77.8897 240.661 77.3711 240.024C76.8762 239.477 76.2295 239.153 75.4312 239.05C76.2075 238.962 76.8437 238.656 77.3396 238.131C77.8872 237.484 78.2291 236.762 78.3648 235.964Z" fill="#120C5D"/>
<path fill-rule="evenodd" clip-rule="evenodd" d="M146.362 184.103C146.468 184.558 146.642 184.997 146.882 185.419C147.267 186.019 147.851 186.371 148.633 186.476C147.873 186.57 147.3 186.904 146.914 187.477C146.641 187.906 146.462 188.363 146.378 188.849C146.282 188.206 146.009 187.63 145.558 187.12C145.182 186.758 144.714 186.543 144.154 186.476C145.11 186.313 145.757 185.833 146.094 185.035C146.226 184.733 146.315 184.422 146.362 184.103Z" fill="#AA233B"/>
<path fill-rule="evenodd" clip-rule="evenodd" d="M119.412 153.878C119.516 154.362 119.71 154.819 119.996 155.25C120.237 155.558 120.568 155.746 120.99 155.813C120.576 155.903 120.245 156.1 119.996 156.402C119.682 156.819 119.493 157.276 119.428 157.774C119.363 157.276 119.173 156.819 118.86 156.402C118.613 156.1 118.282 155.904 117.867 155.813C118.503 155.671 118.929 155.328 119.144 154.784C119.288 154.494 119.377 154.192 119.412 153.878Z" fill="#120C5D"/>
<path fill-rule="evenodd" clip-rule="evenodd" d="M239.34 172.93C239.443 173.404 239.637 173.853 239.923 174.274C240.272 174.712 240.75 174.972 241.359 175.056C240.583 175.172 240.031 175.542 239.703 176.167C239.543 176.475 239.428 176.795 239.356 177.127C239.264 176.604 239.043 176.129 238.693 175.701C238.35 175.325 237.903 175.11 237.353 175.056C238.212 174.921 238.796 174.496 239.103 173.78C239.227 173.506 239.306 173.222 239.34 172.93Z" fill="#FE5C7F"/>
<path fill-rule="evenodd" clip-rule="evenodd" d="M126.227 241.466C126.33 241.94 126.524 242.389 126.811 242.81C127.159 243.248 127.637 243.508 128.246 243.592C127.47 243.708 126.918 244.078 126.59 244.703C126.43 245.011 126.315 245.331 126.243 245.663C126.151 245.14 125.93 244.665 125.58 244.237C125.237 243.861 124.79 243.646 124.24 243.592C125.1 243.457 125.683 243.032 125.99 242.316C126.114 242.042 126.193 241.758 126.227 241.466Z" fill="#FE5C7F"/>
<path fill-rule="evenodd" clip-rule="evenodd" d="M281.803 138.706C281.947 139.544 282.31 140.303 282.891 140.983C283.406 141.493 284.052 141.79 284.831 141.875C284.009 141.951 283.342 142.266 282.828 142.821C282.283 143.477 281.947 144.209 281.818 145.016C281.68 144.198 281.333 143.457 280.777 142.794C280.258 142.246 279.591 141.939 278.774 141.875C279.866 141.741 280.67 141.252 281.188 140.407C281.504 139.87 281.709 139.303 281.803 138.706Z" fill="#AA233B"/>
<path fill-rule="evenodd" clip-rule="evenodd" d="M93.382 136.2C93.5228 136.856 93.7805 137.478 94.1548 138.066C94.6704 138.805 95.4222 139.23 96.4102 139.341C95.4212 139.453 94.6694 139.879 94.1548 140.617C93.777 141.201 93.5246 141.822 93.3977 142.483C93.2674 141.662 92.9204 140.921 92.3568 140.261C91.8398 139.729 91.1826 139.423 90.3853 139.341C91.487 139.206 92.2914 138.708 92.7984 137.846C93.0978 137.326 93.2923 136.777 93.382 136.2Z" fill="#AA233B"/>
<path fill-rule="evenodd" clip-rule="evenodd" d="M191.133 50.3149C191.262 51.0257 191.556 51.6752 192.014 52.2632C192.456 52.7623 193.03 53.0459 193.736 53.1141C193.046 53.1792 192.481 53.4546 192.041 53.9403C191.559 54.5254 191.26 55.183 191.147 55.9132C191.027 55.1859 190.729 54.5283 190.252 53.9403C189.807 53.4625 189.243 53.1871 188.557 53.1141C189.448 53.0113 190.112 52.6043 190.55 51.8933C190.85 51.3991 191.045 50.873 191.133 50.3149Z" fill="#0C1844"/>
<path fill-rule="evenodd" clip-rule="evenodd" d="M84.5525 89.6816C84.678 90.406 84.9806 91.0637 85.4609 91.6546C85.9037 92.1334 86.4685 92.4006 87.1556 92.4561C86.4492 92.5244 85.8752 92.8081 85.4337 93.307C84.9649 93.8788 84.6756 94.52 84.566 95.2306C84.4335 94.5374 84.1441 93.9044 83.6984 93.3316C83.2729 92.8399 82.7171 92.5481 82.0308 92.4561C82.6981 92.3767 83.245 92.1013 83.6712 91.6299C84.142 91.0485 84.4359 90.399 84.5525 89.6816Z" fill="#120C5D"/>
<path fill-rule="evenodd" clip-rule="evenodd" d="M143.003 43.0605C143.094 43.4698 143.244 43.8644 143.45 44.2443C143.781 44.7836 144.283 45.1001 144.955 45.1938C144.302 45.2787 143.809 45.5788 143.478 46.094C143.243 46.4797 143.089 46.8908 143.017 47.3271C142.934 46.7493 142.7 46.2314 142.312 45.7734C141.988 45.4476 141.586 45.2544 141.105 45.1938C141.927 45.0478 142.483 44.6162 142.773 43.8991C142.886 43.6272 142.963 43.3477 143.003 43.0605Z" fill="#AA233B"/>
<path fill-rule="evenodd" clip-rule="evenodd" d="M119.838 15.8916C119.927 16.3261 120.094 16.7373 120.34 17.1247C120.546 17.4017 120.831 17.5704 121.194 17.6303C120.838 17.7117 120.554 17.8885 120.34 18.1605C120.07 18.5349 119.907 18.946 119.851 19.3936C119.795 18.9463 119.632 18.5351 119.363 18.1605C119.151 17.889 118.866 17.7122 118.509 17.6303C119.056 17.503 119.422 17.1947 119.607 16.7055C119.731 16.445 119.808 16.1737 119.838 15.8916Z" fill="#120C5D"/>
<path fill-rule="evenodd" clip-rule="evenodd" d="M222.927 33.0176C223.015 33.4442 223.182 33.8472 223.429 34.226C223.728 34.6194 224.139 34.8537 224.662 34.9289C223.996 35.033 223.521 35.3659 223.239 35.9277C223.102 36.2044 223.002 36.492 222.941 36.7909C222.862 36.3206 222.672 35.8932 222.371 35.5085C222.076 35.1708 221.692 34.9775 221.219 34.9289C221.958 34.8076 222.46 34.4253 222.724 33.7821C222.83 33.5352 222.898 33.2802 222.927 33.0176Z" fill="#FE5C7F"/>
<path fill-rule="evenodd" clip-rule="evenodd" d="M125.695 94.627C125.783 95.0536 125.951 95.4566 126.197 95.8354C126.496 96.2288 126.907 96.463 127.43 96.5383C126.764 96.6423 126.289 96.9753 126.007 97.5371C125.87 97.8138 125.77 98.1014 125.709 98.4003C125.63 97.93 125.44 97.5026 125.139 97.1178C124.844 96.7802 124.46 96.5869 123.987 96.5383C124.726 96.4169 125.228 96.0347 125.492 95.3915C125.598 95.1446 125.666 94.8896 125.695 94.627Z" fill="#FE5C7F"/>
<path fill-rule="evenodd" clip-rule="evenodd" d="M259.428 2.25244C259.552 3.00562 259.864 3.68802 260.363 4.2994C260.806 4.75762 261.362 5.02471 262.031 5.10092C261.325 5.16923 260.751 5.45285 260.309 5.95176C259.84 6.54143 259.551 7.19892 259.441 7.92473C259.323 7.18931 259.024 6.52343 258.547 5.9271C258.1 5.43435 257.526 5.15887 256.825 5.10092C257.763 4.98057 258.454 4.54084 258.899 3.78149C259.171 3.2991 259.347 2.78934 259.428 2.25244Z" fill="#AA233B"/>
<path fill-rule="evenodd" clip-rule="evenodd" d="M97.4617 0C97.5828 0.589178 97.8043 1.14827 98.126 1.67702C98.5693 2.34117 99.2155 2.72344 100.065 2.82381C99.2146 2.92443 98.5684 3.3067 98.126 3.9706C97.8013 4.49516 97.5843 5.05401 97.4753 5.64762C97.3632 4.90998 97.0649 4.2441 96.5805 3.64999C96.1361 3.17229 95.5712 2.89681 94.8857 2.82381C95.8328 2.70223 96.5242 2.25436 96.9601 1.47973C97.2174 1.01164 97.3847 0.518398 97.4617 0Z" fill="#AA233B"/>
<path fill-rule="evenodd" clip-rule="evenodd" d="M209.392 157.68C209.697 159.433 210.395 161.035 211.484 162.485C212.533 163.716 213.895 164.415 215.571 164.583C213.933 164.744 212.592 165.423 211.548 166.621C210.402 168.063 209.694 169.685 209.424 171.486C209.14 169.692 208.432 168.071 207.3 166.621C206.245 165.442 204.905 164.763 203.277 164.583C205.392 164.33 206.969 163.326 208.008 161.573C208.721 160.354 209.182 159.056 209.392 157.68Z" fill="#0C1844"/>
<path fill-rule="evenodd" clip-rule="evenodd" d="M305.817 234C306.115 235.786 306.833 237.408 307.973 238.866C309.024 240.046 310.365 240.705 311.996 240.842C310.319 241.011 308.957 241.71 307.909 242.94C306.796 244.351 306.109 245.932 305.849 247.684C305.534 245.975 304.848 244.414 303.79 243.001C302.78 241.789 301.46 241.069 299.831 240.842C301.415 240.646 302.713 239.967 303.725 238.805C304.843 237.371 305.54 235.769 305.817 234Z" fill="#120C5D"/>
<path fill-rule="evenodd" clip-rule="evenodd" d="M66.7365 151.2C66.9534 152.209 67.3075 153.182 67.7986 154.12C68.5838 155.449 69.7746 156.23 71.3708 156.461C69.8203 156.67 68.6508 157.41 67.8629 158.681C67.3055 159.632 66.9406 160.646 66.7687 161.722C66.5737 160.297 66.0163 159.02 65.0952 157.89C64.328 157.087 63.3734 156.61 62.231 156.461C64.1825 156.101 65.502 155.037 66.1894 153.268C66.4585 152.598 66.6406 151.908 66.7365 151.2Z" fill="#AA233B"/>
<path fill-rule="evenodd" clip-rule="evenodd" d="M40.1539 72.7896C40.3644 73.8612 40.7609 74.875 41.3447 75.8305C41.8358 76.5135 42.5116 76.9295 43.3722 77.0773C42.529 77.278 41.8532 77.7141 41.3447 78.3849C40.7042 79.3081 40.318 80.322 40.1861 81.4258C40.0522 80.3226 39.666 79.3087 39.0275 78.3849C38.5222 77.7153 37.8464 77.2792 37 77.0773C38.2982 76.7635 39.1672 76.0032 39.6068 74.7966C39.9003 74.1543 40.0825 73.4853 40.1539 72.7896Z" fill="#120C5D"/>
<path fill-rule="evenodd" clip-rule="evenodd" d="M284.863 115.024C285.073 116.076 285.469 117.07 286.054 118.004C286.765 118.974 287.741 119.552 288.983 119.737C287.4 119.994 286.273 120.815 285.603 122.201C285.278 122.883 285.042 123.592 284.895 124.329C284.708 123.169 284.257 122.115 283.544 121.167C282.843 120.334 281.931 119.857 280.808 119.737C282.563 119.438 283.753 118.495 284.38 116.909C284.633 116.301 284.794 115.672 284.863 115.024Z" fill="#FE5C7F"/>
<path fill-rule="evenodd" clip-rule="evenodd" d="M54.0579 266.958C54.2678 268.01 54.6643 269.003 55.2487 269.938C55.9599 270.908 56.9357 271.485 58.1773 271.671C56.5946 271.928 55.4682 272.749 54.7982 274.134C54.4731 274.817 54.2369 275.526 54.0901 276.263C53.9028 275.103 53.4523 274.049 52.7385 273.1C52.0375 272.268 51.1261 271.791 50.0029 271.671C51.7575 271.372 52.9483 270.429 53.5752 268.843C53.8275 268.234 53.9884 267.605 54.0579 266.958Z" fill="#FE5C7F"/>
<path fill-rule="evenodd" clip-rule="evenodd" d="M299.41 39C299.704 40.8574 300.444 42.5403 301.631 44.048C302.681 45.178 304.001 45.8367 305.589 46.0246C303.913 46.1931 302.55 46.8925 301.502 48.1228C300.39 49.577 299.704 51.1984 299.442 52.9883C299.16 51.1747 298.452 49.5326 297.318 48.062C296.259 46.8469 294.897 46.1675 293.231 46.0246C295.458 45.7278 297.099 44.6434 298.155 42.7708C298.8 41.5812 299.218 40.324 299.41 39Z" fill="#AA233B"/>
<path fill-rule="evenodd" clip-rule="evenodd" d="M164.946 15C165.233 16.453 165.759 17.8317 166.523 19.1357C167.575 20.7735 169.109 21.7162 171.125 21.9638C169.107 22.2119 167.573 23.1546 166.523 24.7918C165.752 26.0855 165.237 27.4636 164.978 28.9275C164.712 27.1084 164.004 25.4663 162.854 24.0012C161.799 22.8231 160.458 22.1438 158.831 21.9638C161.079 21.6639 162.72 20.5595 163.755 18.6491C164.366 17.4948 164.763 16.2784 164.946 15Z" fill="#AA233B"/>
<path d="M59.728 274.887C92.7148 274.887 119.456 270.773 119.456 265.698C119.456 260.623 92.7148 256.509 59.728 256.509C26.7411 256.509 0 260.623 0 265.698C0 270.773 26.7411 274.887 59.728 274.887Z" fill="#DFDFEB"/>
<path d="M157.352 276.725C216.944 276.725 265.254 272.611 265.254 267.536C265.254 262.462 216.944 258.348 157.352 258.348C97.7594 258.348 49.4502 262.462 49.4502 267.536C49.4502 272.611 97.7594 276.725 157.352 276.725Z" fill="#DFDFEB"/>
<path d="M127.999 41.0082C116.856 41.3118 107.637 50.2363 106.996 61.3645C106.619 67.9078 109.155 73.862 113.423 78.0628C114.054 78.6834 114.346 79.5682 114.199 80.4407L112.596 89.9245L122.458 84.1789C123.019 83.8517 123.681 83.7314 124.318 83.8602C126.729 84.3464 129.282 84.4358 131.915 84.0373C141.656 82.5616 149.256 74.4972 150.155 64.6856C151.351 51.6091 140.906 40.6569 127.999 41.0082Z" fill="#D3DDF7"/>
<path d="M127.615 70.1366L127.555 64.9621C128.31 64.7783 128.998 64.5388 129.621 64.2426C130.243 63.9469 130.79 63.6051 131.259 63.2167C131.729 62.8294 132.121 62.3954 132.439 61.9153C132.755 61.4358 132.994 60.9203 133.158 60.3694C133.321 59.8185 133.403 59.2367 133.403 58.6246C133.403 57.7471 133.188 56.9201 132.759 56.1444C132.331 55.3692 131.718 54.7413 130.922 54.2612C130.126 53.7817 129.176 53.5417 128.075 53.5417C126.891 53.5417 125.793 53.8683 124.783 54.5215C123.773 55.1753 123.002 56.2872 122.472 57.8589L121.921 57.4913C122.39 56.0016 123.176 54.8582 124.279 54.0622C125.381 53.2657 126.636 52.8677 128.044 52.8677C129.249 52.8677 130.305 53.1234 131.214 53.6333C132.121 54.1437 132.831 54.8329 133.341 55.7003C133.851 56.5677 134.107 57.5424 134.107 58.6246C134.107 59.4413 133.969 60.2064 133.694 60.9209C133.418 61.6354 133.03 62.2886 132.53 62.8805C132.03 63.473 131.423 63.9879 130.708 64.4264C129.993 64.866 129.188 65.1971 128.289 65.422L128.229 70.1372L127.615 70.1366ZM127.248 73.9946C127.248 73.7293 127.32 73.51 127.462 73.3363C127.605 73.1632 127.8 73.0761 128.044 73.0761C128.33 73.0761 128.534 73.1581 128.657 73.3211C128.78 73.4847 128.84 73.709 128.84 73.9946C128.84 74.2397 128.774 74.4539 128.641 74.6377C128.508 74.8215 128.309 74.9131 128.044 74.9131C127.778 74.9131 127.579 74.8311 127.446 74.668C127.313 74.505 127.248 74.2807 127.248 73.9946Z" fill="black"/>
<path d="M65.3667 252.767L66.3269 260.003C66.3269 260.003 84.3272 267.671 82.6576 267.781C80.9881 267.893 55.1206 266.223 55.1206 266.223L56.6429 253.086L65.3667 252.767Z" fill="black"/>
<path d="M60.3524 134.629C60.3524 134.629 58.9178 148.436 57.8425 149.153C56.7665 149.87 55.3325 150.229 55.3325 150.229L57.6632 134.451L60.3524 134.629Z" stroke="#424242" stroke-miterlimit="10"/>
<path d="M31.9279 125.14C31.9279 125.14 24.6318 141.614 26.75 150.793L67.1937 144.624L66.35 127.509L31.9279 125.14Z" fill="black"/>
<path d="M67.1937 144.625C67.1937 144.625 67.4224 184.152 67.7035 197.923C67.9846 211.694 70.3928 254.223 70.3928 254.223C70.3928 254.223 62.8404 258.387 54.9744 255.022C54.3454 254.753 47.5693 144.256 47.5693 144.256L67.1937 144.625Z" fill="black"/>
<path d="M27.42 145.901L10.354 254.584C10.354 254.584 17.8069 261.567 27.221 255.212L44.5743 166.437L53.0013 160.779L54.2566 144.585L27.42 145.901Z" fill="black"/>
<path d="M22.9388 251.894L24.4925 258.137C24.4925 258.137 35.8483 271.795 34.1748 271.795C32.5013 271.795 13.854 263.34 13.854 263.34L16.2448 250.333L22.9388 251.894Z" fill="black"/>
<path d="M33.6539 131.808C33.6539 131.808 22.8991 177.026 14.9043 256.859" stroke="#424242" stroke-miterlimit="10"/>
<path d="M41.028 136.672C41.028 136.672 37.2622 146.086 30.8291 146.243" stroke="#424242" stroke-miterlimit="10"/>
<path d="M56.9349 255.674L51.4326 162.117L56.8078 156.48" stroke="#424242" stroke-miterlimit="10"/>
<path d="M56.8632 77.8065C59.6615 77.2337 61.7038 76.8228 61.7038 76.8228L79.1571 86.355C79.1869 86.3713 79.2167 86.3876 79.2465 86.4039C84.9657 89.5597 87.4936 94.9141 87.343 102.418L88.1907 113.288L78.7327 105.613L70.7374 121.031L65.6595 139.233C38.5621 149.086 28.0366 131.395 28.0366 131.395L37.0146 111.96L40.6409 94.0108C42.3639 84.8001 47.6845 79.6857 56.8632 77.8065Z" fill="#1A3B73"/>
<path d="M203.381 108.511C203.381 108.511 200.647 119.95 185.173 133.906C185.173 133.906 183.696 131.817 186.999 123.767C190.303 115.718 202.733 105.658 203.381 108.511Z" fill="#45B32D"/>
<path d="M203.381 108.512C203.381 108.512 189.717 117.02 185.173 133.906C185.173 133.906 184.129 139.731 185.814 144.943" stroke="black" stroke-miterlimit="10" stroke-linecap="round"/>
<path d="M167.664 115.604C167.664 115.604 171.507 113.062 165.646 105.721C160.078 98.7469 154.115 92.4318 141.858 89.4722C141.858 89.4722 144.523 106.502 152.344 111.022C160.165 115.541 167.664 115.604 167.664 115.604Z" fill="#45B32D"/>
<path d="M136.786 126.021C136.786 126.021 149.538 129.671 171.941 123.757C171.941 123.757 170.727 121.403 160.975 120.012C151.223 118.621 134.354 123.973 136.786 126.021Z" fill="#45B32D"/>
<path d="M136.786 126.021C136.786 126.021 152.829 118.802 171.941 123.758C171.941 123.758 173.9 124.383 175.753 127.22" stroke="black" stroke-miterlimit="10" stroke-linecap="round"/>
<path d="M146.754 138.425C146.754 138.425 160.01 148.422 182.413 142.509C182.413 142.509 178.642 134.519 168.89 133.128C159.138 131.737 144.323 136.378 146.754 138.425Z" fill="#45B32D"/>
<path d="M146.754 138.425C146.754 138.425 162.117 132.422 182.413 142.509C182.413 142.509 184.796 143.758 186.648 146.595" stroke="black" stroke-miterlimit="10" stroke-linecap="round"/>
<path d="M196.443 97.0704C196.443 97.0704 200.558 96.8427 190 105.424C180.03 113.527 181.223 113.672 181.223 113.672C181.223 113.672 185.629 100.873 196.443 97.0704Z" fill="black"/>
<path d="M174.094 117.644C174.094 117.644 177.069 119.016 182.895 114.319C188.721 109.622 191.493 98.5002 196.443 97.0713C196.443 97.0713 184.053 100.214 174.094 117.644Z" fill="#45B32D"/>
<path d="M191.621 157.591C186.217 144.692 178.51 129.937 167.665 115.604C167.665 115.604 165.029 111.65 155.655 101.238C146.281 90.8252 141.859 89.4722 141.859 89.4722" stroke="black" stroke-miterlimit="10" stroke-linecap="round"/>
<path d="M194.971 97.5781C194.971 97.5781 183.097 101.878 174.093 117.643C171.912 121.462 174.019 124.731 175.753 127.22" stroke="black" stroke-miterlimit="10" stroke-linecap="round"/>
<path d="M315.184 246.143C315.184 246.143 303.668 249.599 284.453 237.147C284.453 237.147 285.715 233.801 294.406 233.263C303.097 232.725 317.491 243.453 315.184 246.143Z" fill="#45B32D"/>
<path d="M314.752 245.297C314.752 245.297 302.102 235.343 284.677 236.817C284.677 236.817 278.845 237.817 274.518 241.176" stroke="black" stroke-miterlimit="10" stroke-linecap="round"/>
<path d="M290.118 220.476C290.118 220.476 293.817 223.225 298.725 215.216C303.388 207.607 307.298 199.851 305.91 187.318C305.91 187.318 290.803 195.618 289.215 204.51C287.625 213.403 290.118 220.476 290.118 220.476Z" fill="#45B32D"/>
<path d="M319.82 234.783C319.82 234.783 322.238 238.122 309.309 233.884C297.101 229.883 297.625 230.963 297.625 230.963C297.625 230.963 310.773 227.745 319.82 234.783Z" fill="black"/>
<path d="M290.428 227.115C290.428 227.115 290.884 230.36 297.986 232.719C305.088 235.078 315.942 231.393 319.821 234.784C319.821 234.784 310.475 226.063 290.428 227.115Z" fill="#45B32D"/>
<path d="M258.789 257.29C269.079 247.819 280.331 235.552 290.118 220.476C290.118 220.476 292.939 216.651 299.541 204.294C306.143 191.936 305.91 187.318 305.91 187.318" stroke="black" stroke-miterlimit="10" stroke-linecap="round"/>
<path d="M318.598 233.82C318.598 233.82 308.558 226.16 290.428 227.116C286.036 227.347 284.047 229.486 280.754 233.592" stroke="black" stroke-miterlimit="10" stroke-linecap="round"/>
<path d="M195.432 131.535C198.956 131.535 202.368 130.298 205.074 128.041L212.581 121.776C215.283 119.522 218.491 118.314 221.779 118.314H259.037C262.418 118.314 265.159 121.055 265.159 124.436V131.534V259.318C265.159 265.152 260.429 269.882 254.595 269.882H68.8681C64.3305 269.882 60.6519 266.203 60.6519 261.665V139.751C60.6519 135.214 64.3305 131.535 68.8681 131.535H195.432Z" fill="#AA233B"/>
<path d="M60.6529 262.355C60.6529 262.355 73.2926 238.645 74.5569 235.922L109.101 165.547C109.969 163.676 111.844 162.48 113.906 162.48H242.275C246.942 162.48 253.691 160.034 257.274 157.044L262.455 152.721C265.156 150.467 268.365 149.259 271.653 149.259H307.109C310.883 149.259 313.447 153.093 312.005 156.581L269.13 260.279C266.727 266.091 261.057 269.882 254.767 269.882H62.9712C61.721 269.882 60.5663 268.811 60.5669 267.561L60.6529 262.355Z" fill="#C33850"/>
<path d="M112.867 169.172L62.1772 267.708" stroke="black" stroke-miterlimit="10" stroke-linejoin="round"/>
<path d="M133.753 186.152H177.417C178.608 186.152 179.716 185.553 180.355 184.564C181.83 182.281 180.165 179.293 177.417 179.293H133.753C132.562 179.293 131.455 179.892 130.815 180.881C129.34 183.164 131.005 186.152 133.753 186.152Z" stroke="black" stroke-miterlimit="10" stroke-linejoin="round"/>
<path d="M69.327 123.76L75.6314 130.839C75.6314 130.839 69.7171 137.818 63.7101 133.684L62.7466 132.302L69.327 123.76Z" fill="#1A3B73"/>
<path d="M54.6777 81.5176C54.6777 81.5176 63.3156 83.7808 56.5193 108.752" stroke="black" stroke-miterlimit="10" stroke-linecap="round"/>
<path d="M69.8558 124.502C65.1923 119.263 59.4922 112.679 56.125 108.14" stroke="black" stroke-miterlimit="10" stroke-linecap="round"/>
<path d="M63.7102 133.684C59.2345 129.096 53.1864 122.564 50.5466 120.144C46.4329 116.371 42.1634 110.301 43.5552 102.503L43.3883 96.251" stroke="black" stroke-miterlimit="10" stroke-linecap="round"/>
<path d="M90.5769 130.333C85.0651 127.355 82.526 123.668 80.4005 120.935C75.33 114.415 73.5334 113.608 75.0191 106.02L75.1006 98.0796L86.1012 109.985C90.302 115.557 99.9866 125.547 103.565 129.483C103.565 129.483 99.3643 135.081 90.5769 130.333Z" fill="#1A3B73"/>
<path d="M68.1428 128.323C68.6498 128.184 69.1754 128.141 69.6982 128.196C71.5848 128.396 76.6401 128.926 77.2107 128.934C77.9133 128.943 78.4845 127.894 79.9921 131.697C81.4998 135.499 81.2294 135.853 81.2204 136.35C81.212 136.847 80.118 144.149 78.9432 143.052C77.7683 141.955 77.9263 141.317 77.9263 141.317C77.9263 141.317 77.2927 144.282 76.9594 144.168C76.626 144.053 75.391 144.05 75.5889 141.956C75.5889 141.956 74.9154 143.991 74.2212 143.485C73.5269 142.979 73.6827 140.779 73.6827 140.779C73.6827 140.779 72.9395 142.43 72.0907 141.328C71.2424 140.225 71.8743 137.671 71.8743 137.671L71.1631 135.773L69.6246 135.108C69.6246 135.108 64.4456 136.463 63.5546 132.868C62.8705 130.106 66.449 128.786 68.1428 128.323Z" fill="#DB9C7F"/>
<path d="M78.5598 132.984L79.5323 137.071L77.9263 141.316" stroke="black" stroke-miterlimit="10" stroke-linecap="round"/>
<path d="M76.0634 132.833L77.3231 137.022L75.5884 141.955" stroke="black" stroke-miterlimit="10" stroke-linecap="round"/>
<path d="M73.8728 133.3L74.6064 137.327L73.7671 140.344" stroke="black" stroke-miterlimit="10" stroke-linecap="round"/>
<path d="M69.6436 55.6558C67.8059 57.3759 67.7789 59.4676 67.7789 59.4676C67.7789 59.4676 67.1471 58.6874 66.3657 58.4367" stroke="black" stroke-miterlimit="10" stroke-linecap="round"/>
<path d="M95.8938 127.153C97.6415 126.731 99.4842 127.016 101.084 127.836C103.189 128.914 106.478 130.585 106.907 130.713C107.544 130.903 107.959 130.559 108.043 134.427C108.077 135.955 108.072 137.01 107.936 137.461C107.799 137.91 104.71 142.527 103.695 141.877C103.668 141.859 103.649 141.844 103.623 141.827C103.366 142.173 103.021 142.597 102.683 142.886C102.429 143.102 101.018 143.073 101.74 141.22C101.74 141.22 100.762 143.362 100.001 143.076C99.0103 142.704 99.1711 141.752 99.5326 140.945C99.0722 141.567 98.5021 142.074 98.0968 141.536C97.3014 140.48 99.1031 136.725 99.1031 136.725L99.3133 134.452L97.9383 133.221C97.9383 133.221 93.0235 133.341 93.1433 129.841C93.1978 128.235 94.4997 127.489 95.8938 127.153Z" fill="#DB9C7F"/>
<path d="M106.68 133.01L106.617 137.158L103.592 141.56" stroke="black" stroke-miterlimit="10" stroke-linecap="round"/>
<path d="M104.532 133.043L104.295 137.318L101.74 141.219" stroke="black" stroke-miterlimit="10" stroke-linecap="round"/>
<path d="M102.35 133.155L102.044 136.755L99.8633 140.372" stroke="black" stroke-miterlimit="10" stroke-linecap="round"/>
<path d="M96.1314 132.195C96.1314 132.195 96.625 135.906 95.4271 136.721C94.2297 137.535 92.2982 129.861 93.6266 129.764C95.5732 129.62 96.1314 132.195 96.1314 132.195Z" fill="#DB9C7F"/>
<path d="M97.7642 131.659C97.7642 131.659 96.573 131.85 96.2329 133.249" stroke="black" stroke-miterlimit="10" stroke-linecap="round"/>
<path d="M74.6484 113.702L80.4385 106.155C85.7316 99.1528 82.2042 91.75 82.2042 91.75" stroke="black" stroke-miterlimit="10" stroke-linecap="round"/>
<path d="M88.1906 113.288C88.1906 113.288 84.7796 108.559 84.0044 110.652" stroke="black" stroke-miterlimit="10" stroke-linecap="round"/>
<path d="M89.5084 73.931L88.5264 73.7241" stroke="white" stroke-miterlimit="10"/>
<path d="M68.9782 73.0161L61.7035 76.8229C61.7035 76.8229 61.5124 85.4563 69.682 92.0181L73.3505 88.4536L77.0477 92.1519C77.0477 92.1519 78.4542 91.0473 78.8718 86.0347L78.2124 79.949L68.9782 73.0161Z" fill="white"/>
<path d="M78.2126 79.949L68.9778 73.0161L61.7031 76.8229" stroke="black" stroke-miterlimit="10" stroke-linecap="round" stroke-linejoin="round"/>
<path d="M66.8657 74.3256C66.8657 74.3256 69.1148 87.4763 72.445 88.4083C75.7745 89.3398 77.8516 82.7639 77.8516 82.7639L71.4039 64.8125L66.8657 74.3256Z" fill="#DB9C7F"/>
<path d="M79.0887 84.3452L79.1286 85.9799C79.159 85.9967 79.0623 86.4847 77.4411 86.6707C70.3182 86.4582 69.7544 78.4433 69.1748 72.0669C69.1748 72.0669 79.7464 83.0725 79.0887 84.3452Z" fill="black"/>
<path d="M89.0563 66.4663C89.0563 66.4663 90.8861 83.1349 81.1082 85.8433C71.3303 88.5517 68.9879 72.6066 69.3252 67.092C69.6625 61.5774 72.4158 58.8538 79.2689 58.607C89.4071 58.2416 89.0563 66.4663 89.0563 66.4663Z" fill="#DB9C7F"/>
<path d="M74.418 61.9486C74.418 61.9486 74.2348 65.4518 71.9097 66.1517L70.2379 71.3037C70.2379 71.3037 68.8371 69.0141 67.2979 68.2029C67.2979 68.2029 65.598 61.3993 67.7381 58.696C69.8782 55.9927 72.853 54.6222 80.0501 55.2209C85.5282 55.6762 88.7329 59.5623 89.7796 61.5393C90.1192 62.1802 90.9427 63.9813 89.0174 65.7334C89.0174 65.7334 89.0432 64.4079 87.9189 62.857C87.9189 62.857 85.296 68.2192 74.418 61.9486Z" fill="black"/>
<path d="M65.044 72.1868C65.6472 74.3865 67.3775 75.8402 68.9087 75.4343C70.44 75.0284 71.1933 72.9165 70.5901 70.7168C69.9875 68.5172 68.2567 67.0635 66.7254 67.4693C65.1936 67.8758 64.4409 69.9877 65.044 72.1868Z" fill="#DB9C7F"/>
<path d="M79.1417 72.9215C79.1136 73.4881 79.3828 73.962 79.7432 73.9806C80.1035 73.9991 80.4177 73.5545 80.4453 72.9878C80.4734 72.4212 80.2041 71.9473 79.8438 71.9287C79.484 71.9108 79.1692 72.3554 79.1417 72.9215Z" fill="black"/>
<path d="M86.6835 73.3877C86.6278 73.9184 86.8454 74.3771 87.1692 74.4114C87.493 74.4457 87.801 74.0437 87.8567 73.5125C87.9123 72.9819 87.6948 72.5231 87.371 72.4889C87.0466 72.4546 86.7391 72.8571 86.6835 73.3877Z" fill="black"/>
<path d="M76.9888 68.4348C76.9888 68.4348 79.5785 68.9897 79.7511 66.5337" stroke="black" stroke-miterlimit="10" stroke-linecap="round"/>
<path d="M85.7646 68.2334C85.7646 68.2334 86.4246 70.5162 88.3713 69.1947" stroke="black" stroke-miterlimit="10" stroke-linecap="round"/>
<path d="M78.6894 82.0533C78.6894 82.0533 77.8355 78.5742 75.1855 80.5687L78.6894 82.0533Z" fill="black"/>
<path d="M66.5811 70.2721C66.5811 70.2721 68.3034 68.7903 69.2445 71.4998C69.2445 71.4998 68.2382 72.5678 68.8735 73.406C68.8735 73.406 67.8813 73.6308 67.3922 72.7562" stroke="black" stroke-miterlimit="10" stroke-linecap="round" stroke-linejoin="round"/>
<path d="M67.3267 71.3086C67.3267 71.3086 67.4228 70.7065 68.0912 70.019" stroke="black" stroke-miterlimit="10" stroke-linecap="round" stroke-linejoin="round"/>
<path d="M85.1885 73.3015C85.1885 74.9115 86.1778 76.2168 87.3988 76.2168C88.6198 76.2168 89.6091 74.9115 89.6091 73.3015C89.6091 71.6915 88.6198 70.3862 87.3988 70.3862C86.1778 70.3862 85.1885 71.6915 85.1885 73.3015Z" stroke="white" stroke-miterlimit="10"/>
<path d="M76.9155 72.9034C76.9155 74.6095 78.1753 75.9924 79.729 75.9924C81.2828 75.9924 82.5425 74.6095 82.5425 72.9034C82.5425 71.1973 81.2828 69.8145 79.729 69.8145C78.1753 69.8139 76.9155 71.1973 76.9155 72.9034Z" stroke="white" stroke-miterlimit="10"/>
<path d="M85.2877 74.1456C85.2877 74.1456 84.6036 71.2422 82.3843 73.9399" stroke="white" stroke-miterlimit="10"/>
<path d="M76.9748 71.7336L70.4365 70.2607" stroke="white" stroke-miterlimit="10"/>
<path d="M85.5616 75.4297C85.8854 75.8406 85.9528 76.3302 85.7893 76.8598C85.6279 77.3826 85.095 77.7007 84.5554 77.6895C84.3052 77.6844 84.0652 77.617 83.8285 77.5428C83.7251 77.5107 83.5205 77.4 83.4092 77.4489C82.8701 77.6872 82.2422 77.2167 82.422 76.8491" stroke="black" stroke-miterlimit="10" stroke-linecap="round"/>
</svg>
