<svg width="219" height="348" viewBox="0 0 219 348" fill="none" xmlns="http://www.w3.org/2000/svg">
<path d="M64.2929 338.569L68.6472 346.167L67.1643 347.016L62.81 339.419L64.2929 338.569ZM54.9257 323.804L55.6802 323.404C56.3465 324.659 57.0403 325.916 57.7609 327.173L59.9387 330.972L58.4558 331.821L56.278 328.022C55.5483 326.749 54.8454 325.476 54.1704 324.204L54.9257 323.804ZM48.0099 308.311L48.8125 308.019C49.7629 310.632 50.8254 313.255 52.0027 315.883L50.4424 316.582C49.2486 313.917 48.1715 311.256 47.2068 308.603L48.0099 308.311ZM43.4633 292.03L44.3012 291.866C44.8312 294.572 45.4761 297.291 46.2404 300.023L45.4175 300.252L44.5944 300.484C43.8179 297.709 43.1623 294.944 42.6235 292.193L43.4633 292.03ZM41.5919 275.142L42.4458 275.119C42.5181 277.896 42.7081 280.695 43.0205 283.511L41.3212 283.699C41.0036 280.835 40.8102 277.989 40.7367 275.164L41.5919 275.142ZM43.4364 258.349C43.0364 261.112 42.7502 263.905 42.5839 266.722L41.7302 266.672L40.8774 266.622C41.0466 263.756 41.3387 260.915 41.7457 258.104L43.4364 258.349ZM46.4031 241.697L47.2185 241.956C46.3683 244.627 45.6232 247.334 44.9904 250.072L44.1578 249.879L43.3257 249.686C43.9691 246.902 44.726 244.151 45.5899 241.437L46.4031 241.697ZM53.5551 226.357C52.302 228.876 51.1438 231.439 50.0861 234.039L48.5024 233.393C49.5765 230.753 50.7526 228.153 52.0243 225.596L53.5551 226.357ZM61.408 211.364L62.1119 211.847C60.516 214.169 59.0028 216.54 57.5772 218.955L56.8415 218.52L56.105 218.086C57.5509 215.637 59.086 213.233 60.7036 210.88L61.408 211.364ZM71.9199 198.027L72.5549 198.598C70.671 200.698 68.8579 202.853 67.1196 205.056L65.7773 203.998C67.5385 201.765 69.3755 199.583 71.2831 197.457L71.9199 198.027ZM83.9964 186.105L84.5599 186.748C82.4392 188.606 80.3765 190.524 78.3775 192.496L77.7767 191.888L77.1776 191.279C79.2008 189.283 81.288 187.344 83.4335 185.463L83.9964 186.105ZM97.3891 175.666L97.8747 176.369C95.5577 177.972 93.2875 179.639 91.0698 181.367L90.544 180.694L90.0199 180.02C92.2633 178.272 94.5599 176.585 96.9033 174.964L97.3891 175.666ZM104.059 170.304C106.487 168.817 108.957 167.398 111.465 166.049L111.869 166.802L112.275 167.554C109.796 168.888 107.352 170.292 104.951 171.762L104.059 170.304Z" fill="#D9D9D9"/>
<path d="M163.685 8.66494L160.005 0.718722L161.556 0.000968704L165.236 7.94719L163.685 8.66494ZM171.737 24.1865L170.951 24.5197C170.396 23.2112 169.814 21.8995 169.205 20.5845L167.364 16.6112L168.915 15.8934L170.756 19.8667C171.372 21.1983 171.962 22.5272 172.525 23.8528L171.737 24.1865ZM177.285 40.22L176.46 40.442C175.74 37.756 174.908 35.0511 173.963 32.3307L175.578 31.7696C176.537 34.5283 177.379 37.2726 178.11 39.999L177.285 40.22ZM180.404 56.8335L179.555 56.9245C179.261 54.1833 178.855 51.4178 178.33 48.6308L179.169 48.473L180.009 48.314C180.543 51.1454 180.956 53.9571 181.255 56.7438L180.404 56.8335ZM180.805 73.8208L179.952 73.7693C180.121 70.9962 180.174 68.1917 180.107 65.3591L181.816 65.3194C181.884 68.1999 181.831 71.0521 181.659 73.8727L180.805 73.8208ZM177.513 90.3909C178.151 87.6723 178.678 84.9152 179.087 82.1234L179.933 82.2468L180.779 82.3706C180.362 85.211 179.825 88.016 179.176 90.7815L177.513 90.3909ZM173.114 106.723L172.325 106.394C173.403 103.807 174.38 101.175 175.247 98.5016L176.06 98.7665L176.872 99.0304C175.99 101.748 174.998 104.423 173.902 107.053L173.114 106.723ZM164.66 121.386C166.127 118.984 167.503 116.532 168.782 114.033L170.304 114.814C169.005 117.351 167.608 119.84 166.119 122.277L164.66 121.386ZM155.538 135.642L154.879 135.1C156.67 132.924 158.382 130.694 160.012 128.412L160.707 128.909L161.403 129.405C159.751 131.719 158.013 133.981 156.198 136.186L155.538 135.642ZM143.91 148.018L143.327 147.394C145.386 145.465 147.379 143.476 149.301 141.431L150.547 142.602C148.599 144.673 146.58 146.688 144.495 148.641L143.91 148.018ZM130.846 158.849L130.34 158.159C132.614 156.492 134.835 154.76 136.998 152.969L137.543 153.626L138.088 154.285C135.899 156.098 133.652 157.85 131.351 159.537L130.846 158.849ZM116.599 168.089L116.176 167.346C118.624 165.95 121.03 164.485 123.389 162.956L123.854 163.672L124.318 164.39C121.932 165.937 119.498 167.418 117.022 168.83L116.599 168.089ZM109.49 172.853C106.942 174.123 104.358 175.323 101.744 176.45L101.406 175.664L101.067 174.88C103.652 173.766 106.208 172.579 108.727 171.323L109.49 172.853Z" fill="#D9D9D9"/>
<circle cx="174.531" cy="101.908" r="5.07983" transform="rotate(155.133 174.531 101.908)" fill="#7ED76A"/>
<circle cx="174.531" cy="101.908" r="2.53991" transform="rotate(155.133 174.531 101.908)" fill="white"/>
<path d="M87.7119 184.239L87.709 192.996L86 192.995L86.0029 184.238L87.7119 184.239ZM86.9326 166.771L87.7861 166.799C87.7395 168.219 87.7163 169.654 87.7158 171.104L87.7148 175.482L86.0059 175.481L86.0068 171.103C86.0073 169.635 86.0309 168.181 86.0781 166.742L86.9326 166.771ZM88.6416 149.891L89.4834 150.036C89.0075 152.776 88.6243 155.58 88.3379 158.445L86.6367 158.275C86.9272 155.369 87.3168 152.525 87.7998 149.744L88.6416 149.891ZM92.7979 133.506L93.6064 133.78C92.7201 136.391 91.9263 139.071 91.2305 141.82L90.4023 141.61L89.5732 141.401C90.2801 138.608 91.0872 135.883 91.9883 133.229L92.7979 133.506ZM99.5771 117.925L100.329 118.33C99.0101 120.775 97.7825 123.297 96.6523 125.896L95.085 125.213C96.2343 122.571 97.4825 120.006 98.8242 117.519L99.5771 117.925ZM109.532 104.275C107.81 106.474 106.173 108.754 104.627 111.114L103.911 110.646L103.196 110.179C104.769 107.777 106.436 105.458 108.188 103.222L109.532 104.275ZM120.391 91.3066L120.969 91.9375C118.902 93.8315 116.909 95.8087 114.998 97.8691L114.372 97.2871L113.746 96.7061C115.689 94.6113 117.715 92.6014 119.814 90.6768L120.391 91.3066ZM134.227 81.5586C131.886 83.1207 129.607 84.767 127.396 86.4961L126.343 85.1484C128.588 83.3926 130.902 81.722 133.277 80.1367L134.227 81.5586ZM148.498 72.46L148.868 73.2295C146.329 74.4498 143.836 75.7536 141.398 77.1387L140.977 76.3955L140.554 75.6523C143.026 74.2476 145.554 72.9264 148.128 71.6895L148.498 72.46ZM164.252 66.1211L164.519 66.9326C161.84 67.817 159.195 68.7836 156.591 69.8301L155.953 68.2441C158.591 67.184 161.271 66.2051 163.983 65.3096L164.252 66.1211ZM180.659 61.7881L180.828 62.626C178.064 63.183 175.321 63.8198 172.605 64.5361L172.387 63.71L172.17 62.8838C174.918 62.1588 177.694 61.5147 180.49 60.9512L180.659 61.7881ZM197.471 59.3955L197.542 60.2471C194.735 60.485 191.936 60.8017 189.152 61.1973L189.031 60.3516L188.912 59.5059C191.728 59.1057 194.559 58.7855 197.398 58.5449L197.471 59.3955ZM205.924 58.0625C208.77 57.9813 211.619 57.9789 214.465 58.0566L214.441 58.9111L214.419 59.7656C211.605 59.6887 208.787 59.6912 205.973 59.7715L205.924 58.0625Z" fill="#D9D9D9"/>
<circle cx="117.08" cy="95.0798" r="5.07983" fill="#7ED76A"/>
<circle cx="117.081" cy="95.0798" r="2.53991" fill="white"/>
<path d="M121 180.333C121 187.237 109.807 192.833 96 192.833C82.1929 192.833 71 187.237 71 180.333V169.5C71 176.404 82.1929 182 96 182C109.807 182 121 176.404 121 169.5V180.333Z" fill="#961E34"/>
<path d="M96 158.5C102.721 158.5 108.732 159.865 113.007 162.003C117.371 164.185 119.5 166.922 119.5 169.5C119.5 172.078 117.371 174.815 113.007 176.997C108.732 179.135 102.721 180.5 96 180.5C89.2788 180.5 83.2681 179.135 78.9932 176.997C74.6285 174.815 72.5 172.078 72.5 169.5C72.5 166.922 74.6285 164.185 78.9932 162.003C83.2681 159.865 89.2788 158.5 96 158.5Z" fill="#AA233B" stroke="#CD4059" stroke-width="3"/>
<path d="M95.9803 120H95.9998C102.558 120 109.869 123.835 111.777 132.232C113.932 141.737 108.138 149.938 102.501 155.358L102.495 155.364C100.686 157.122 98.3447 158 95.9998 158C93.6564 158 91.3126 157.122 89.4803 155.359L89.4793 155.358C83.8428 149.939 78.0484 141.718 80.2029 132.213C82.1106 123.819 89.4383 120 95.9803 120ZM95.9998 127.82C91.6915 127.82 88.2 131.312 88.2 135.62C88.2001 139.928 91.6915 143.42 95.9998 143.42C100.308 143.42 103.8 139.928 103.8 135.62C103.8 131.312 100.308 127.82 95.9998 127.82Z" fill="#FF637F" stroke="#50212A" stroke-width="3"/>
<ellipse cx="96" cy="169.5" rx="7.5" ry="3.25" fill="#852C3C"/>
<path d="M200 106.333C200 113.237 188.807 118.833 175 118.833C161.193 118.833 150 113.237 150 106.333C150 99.4297 161.193 93.8333 175 93.8333C188.807 93.8333 200 99.4297 200 106.333Z" fill="#D9D9D9"/>
<path d="M175 83C161.193 83 150 88.5964 150 95.5V106.333C150 99.4298 161.193 93.8333 175 93.8333V83Z" fill="url(#paint0_linear_4_61)"/>
<path d="M200 95.5C200 88.5964 188.807 83 175 83V93.8333C188.807 93.8333 200 99.4298 200 106.333V95.5Z" fill="url(#paint1_linear_4_61)"/>
<path d="M150 95.5C150 102.404 161.193 108 175 108V118.833C161.193 118.833 150 113.237 150 106.333V95.5Z" fill="#676D7F"/>
<path d="M175 108C188.807 108 200 102.404 200 95.5V106.333C200 113.237 188.807 118.833 175 118.833V108Z" fill="#676D7F"/>
<path d="M175 84.5C181.721 84.5 187.732 85.8655 192.007 88.0029C196.371 90.1852 198.5 92.9225 198.5 95.5C198.5 98.0775 196.371 100.815 192.007 102.997C187.732 105.135 181.721 106.5 175 106.5C168.279 106.5 162.268 105.135 157.993 102.997C153.629 100.815 151.5 98.0775 151.5 95.5C151.5 92.9225 153.629 90.1852 157.993 88.0029C162.268 85.8655 168.279 84.5 175 84.5Z" fill="#9199B1" stroke="#B0B6C8" stroke-width="3"/>
<path d="M201.802 178.962L204.968 170.798L206.561 171.416L203.395 179.58L201.802 178.962ZM196.217 195.532L195.431 195.197C195.988 193.889 196.528 192.56 197.052 191.209L198.635 187.126L200.228 187.744L198.645 191.827C198.115 193.195 197.567 194.542 197.003 195.867L196.217 195.532ZM188.524 210.654L187.792 210.214C189.226 207.831 190.596 205.356 191.898 202.787L193.423 203.56C192.103 206.165 190.712 208.676 189.256 211.095L188.524 210.654ZM178.729 224.43L178.074 223.882C179.844 221.768 181.553 219.556 183.195 217.244L183.891 217.739L184.589 218.233C182.92 220.582 181.183 222.832 179.384 224.981L178.729 224.43ZM166.778 236.51L166.223 235.86C168.337 234.057 170.393 232.148 172.385 230.134L173.6 231.337C171.574 233.385 169.483 235.326 167.334 237.16L166.778 236.51ZM152.564 245.64C154.964 244.212 157.315 242.678 159.609 241.036L160.107 241.73L160.605 242.425C158.271 244.096 155.878 245.656 153.437 247.109L152.564 245.64ZM137.753 253.81L137.442 253.012C140.053 251.993 142.626 250.869 145.153 249.639L145.526 250.408L145.9 251.176C143.331 252.427 140.716 253.569 138.063 254.605L137.753 253.81ZM121.33 257.9C124.077 257.289 126.797 256.578 129.484 255.764L129.978 257.401C127.25 258.227 124.489 258.949 121.702 259.569L121.33 257.9ZM104.735 261.228L104.668 260.377C107.477 260.156 110.272 259.841 113.046 259.43L113.171 260.276L113.296 261.121C110.483 261.538 107.649 261.857 104.802 262.08L104.735 261.228ZM87.7554 261.447L87.8 260.594C90.6175 260.737 93.4328 260.791 96.2391 260.756L96.2607 262.465C93.4175 262.501 90.5657 262.445 87.7126 262.3L87.7554 261.447ZM70.891 259.559L71.0362 258.717C73.8149 259.196 76.6028 259.593 79.3936 259.906L79.299 260.756L79.2027 261.604C76.3782 261.287 73.5574 260.885 70.7462 260.4L70.891 259.559ZM54.3507 255.716L54.5919 254.896C57.2956 255.688 60.0198 256.404 62.7581 257.041L62.5655 257.873L62.371 258.705C59.6009 258.061 56.8454 257.337 54.1108 256.535L54.3507 255.716ZM45.987 253.905C43.3039 252.952 40.6463 251.925 38.0208 250.824L38.3514 250.036L38.6811 249.247C41.2772 250.336 43.9058 251.351 46.5589 252.293L45.987 253.905Z" fill="#D9D9D9"/>
<circle cx="142.204" cy="251.487" r="5.07983" transform="rotate(-158.82 142.204 251.487)" fill="#7ED76A"/>
<circle cx="142.203" cy="251.487" r="2.53991" transform="rotate(-158.82 142.203 251.487)" fill="white"/>
<circle cx="42.9339" cy="250.934" r="5.07983" transform="rotate(-29.8368 42.9339 250.934)" fill="#7ED76A"/>
<circle cx="42.9347" cy="250.933" r="2.53991" transform="rotate(-29.8368 42.9347 250.933)" fill="white"/>
<defs>
<linearGradient id="paint0_linear_4_61" x1="175" y1="94.6667" x2="150" y2="94.6667" gradientUnits="userSpaceOnUse">
<stop stop-color="#CACACA"/>
<stop offset="1" stop-color="#CACACA"/>
</linearGradient>
<linearGradient id="paint1_linear_4_61" x1="200" y1="94.6667" x2="175" y2="94.6667" gradientUnits="userSpaceOnUse">
<stop stop-color="#CACACA"/>
<stop offset="1" stop-color="#CACACA"/>
</linearGradient>
</defs>
</svg>
