<svg width="500" height="89" viewBox="0 0 500 89" fill="none" xmlns="http://www.w3.org/2000/svg">
    <path
        d="M70.9149 49.442L67.8971 46.4341L63.0024 51.3125L62.2592 48.4992L58.1377 49.5841L59.9094 56.2732L57.0792 55.51L55.9607 59.6102L62.6796 61.4283L60.6001 63.4859L63.6105 66.5012L68.5352 61.6229L69.2859 64.4287L73.4073 63.3363L71.6206 56.6547L74.4508 57.4104L75.5619 53.3027L68.858 51.507L70.93 49.442H70.9149ZM67.3941 55.5249L70.9375 56.4752L67.3941 57.4179L68.34 60.9495L65.7575 58.3607L63.1525 60.942L64.1134 57.4104L60.5851 56.4527L64.1134 55.5249L63.1826 52.0158L65.75 54.5747L68.34 51.9934L67.3941 55.51V55.5249Z"
        fill="white" />
    <path
        d="M9.76904 0V50.4969L9.79156 50.9908C10.5123 72.2999 27.8538 89 49.2568 89C70.6597 89 88.0013 72.3074 88.7219 50.9908L88.752 50.2276V0H9.76904ZM82.6261 50.1528L82.6036 50.7813C82.3108 59.4231 78.7149 67.4963 72.4689 73.5269C66.2154 79.565 57.9726 82.8946 49.2568 82.8946C43.5063 82.8946 37.9585 81.443 33.0488 78.7195V61.5181H51.6816V42.9475H64.3987V42.9699H70.3144V24.3992H82.6261V50.1528ZM70.3219 18.5033H64.4062V37.0515H45.7734V55.6222H27.1406V74.537C26.7728 74.2078 26.4049 73.8786 26.0521 73.5344C19.8061 67.5038 16.2102 59.4306 15.9174 50.7887L15.8949 50.1079V6.09794H82.6336V18.5033H70.3219Z"
        fill="white" />
    <path d="M21.2174 31.1556V37.0515H33.9346V49.7263H39.8502V37.0515V31.1556H33.9346H21.2174Z"
        fill="white" />
    <path
        d="M39.8502 22.6035C39.8502 20.3439 38.011 18.5108 35.7438 18.5108H21.2174V24.4067H58.483V18.5108H43.9567C41.6895 18.5108 39.8502 20.3439 39.8502 22.6035Z"
        fill="white" />
    <path
        d="M133.875 5.98743V13.0132H113.996C111.286 13.0132 109.777 14.8163 109.777 16.7393C109.777 18.3629 110.798 20.0389 112.968 20.5851L127.607 24.0643C133.755 25.5682 136.525 30.3119 136.525 34.876C136.525 40.5773 132.427 46.2264 124.657 46.2264H103.449V39.2006H124.349C127.179 39.2006 128.808 37.0981 128.808 35.0555C128.808 33.3795 127.667 31.5165 125.377 30.9703L110.678 27.4911C104.658 26.047 102 21.3632 102 16.9188C102 11.397 105.979 5.99491 113.569 5.99491H133.868L133.875 5.98743Z"
        fill="white" />
    <path
        d="M172.545 46.2114L168.566 36.5445H150.556L146.638 46.2114H138.688L155.676 5.97998H163.626L180.675 46.2114H172.545ZM153.206 29.9976H165.856L159.467 14.5096L153.206 29.9976Z"
        fill="white" />
    <path d="M212.483 5.98746V13.0132H198.445V46.2189H191.275V13.0132H177.237V5.98746H212.483Z"
        fill="white" />
    <path
        d="M242.962 46.2114L238.983 36.5445H220.974L217.055 46.2114H209.105L226.094 5.97998H234.044L251.092 46.2114H242.962ZM223.624 29.9976H236.273L229.885 14.5096L223.624 29.9976Z"
        fill="white" />
    <path
        d="M285.73 5.98746V13.0132H265.851C263.141 13.0132 261.632 14.8164 261.632 16.7393C261.632 18.3629 262.653 20.0389 264.823 20.5851L279.462 24.0643C285.61 25.5682 288.38 30.3119 288.38 34.876C288.38 40.5774 284.282 46.2264 276.512 46.2264H255.304V39.2007H276.204C279.034 39.2007 280.663 37.0982 280.663 35.0556C280.663 33.3796 279.515 31.5165 277.225 30.9703L262.526 27.4911C256.505 26.0471 253.848 21.3632 253.848 16.9189C253.848 11.397 257.826 5.99494 265.416 5.99494H285.715L285.73 5.98746Z"
        fill="white" />
    <path
        d="M323.199 5.98746H330.368V46.2189H323.199V28.9875H302.111V46.2189H294.882V5.98746H302.111V22.0217H323.199V5.98746Z"
        fill="white" />
    <path
        d="M365.907 22.1339C371.387 22.1339 373.917 24.8948 373.917 30.1173V46.2114H366.688V31.5614C366.688 29.7582 365.779 28.9801 363.978 28.9801H347.049V46.2114H339.82V5.98746H347.049V22.1414H358.077L366.755 5.98746H374.705L365.847 22.1414H365.907V22.1339Z"
        fill="white" />
    <path
        d="M382.768 46.2114V5.98746H413.187V13.0132H389.99V22.2012H410.958V28.9875H389.99V39.1932H413.187V46.2189H382.768V46.2114Z"
        fill="white" />
    <path
        d="M450.783 5.98746H458.012V46.2189H450.783L428.194 15.9611V46.2189H420.965V5.98746H429.403L450.791 34.3896V5.98746H450.783Z"
        fill="white" />
    <path
        d="M499.212 5.98746V13.0132H485.173V46.2189H478.004V13.0132H463.966V5.98746H499.204H499.212Z"
        fill="white" />
    <path
        d="M111.408 84.216C109.744 84.216 108.32 83.864 107.136 83.16C105.952 82.456 105.04 81.456 104.4 80.16C103.776 78.864 103.464 77.32 103.464 75.528C103.464 74.184 103.64 72.984 103.992 71.928C104.36 70.856 104.88 69.952 105.552 69.216C106.24 68.464 107.08 67.888 108.072 67.488C109.064 67.072 110.176 66.864 111.408 66.864C112.4 66.864 113.344 67.008 114.24 67.296C115.136 67.568 115.912 67.976 116.568 68.52C116.776 68.68 116.912 68.864 116.976 69.072C117.056 69.264 117.064 69.456 117 69.648C116.952 69.824 116.856 69.976 116.712 70.104C116.584 70.216 116.424 70.272 116.232 70.272C116.04 70.272 115.824 70.192 115.584 70.032C115.008 69.568 114.376 69.224 113.688 69C113 68.776 112.256 68.664 111.456 68.664C110.192 68.664 109.12 68.936 108.24 69.48C107.36 70.008 106.696 70.784 106.248 71.808C105.8 72.832 105.576 74.072 105.576 75.528C105.576 76.984 105.8 78.232 106.248 79.272C106.696 80.296 107.36 81.08 108.24 81.624C109.12 82.152 110.192 82.416 111.456 82.416C112.24 82.416 112.984 82.304 113.688 82.08C114.392 81.84 115.04 81.488 115.632 81.024C115.872 80.864 116.088 80.792 116.28 80.808C116.472 80.808 116.632 80.864 116.76 80.976C116.888 81.088 116.976 81.232 117.024 81.408C117.088 81.584 117.088 81.768 117.024 81.96C116.976 82.152 116.856 82.32 116.664 82.464C115.992 83.04 115.2 83.48 114.288 83.784C113.392 84.072 112.432 84.216 111.408 84.216ZM123.977 84.216C122.841 84.216 121.857 83.968 121.025 83.472C120.193 82.976 119.545 82.28 119.081 81.384C118.633 80.472 118.409 79.4 118.409 78.168C118.409 77.24 118.537 76.408 118.793 75.672C119.049 74.92 119.425 74.28 119.921 73.752C120.417 73.224 121.001 72.824 121.673 72.552C122.361 72.264 123.129 72.12 123.977 72.12C125.113 72.12 126.097 72.368 126.929 72.864C127.761 73.36 128.401 74.064 128.849 74.976C129.313 75.872 129.545 76.936 129.545 78.168C129.545 79.096 129.417 79.928 129.161 80.664C128.905 81.4 128.529 82.04 128.033 82.584C127.537 83.112 126.945 83.52 126.257 83.808C125.585 84.08 124.825 84.216 123.977 84.216ZM123.977 82.656C124.697 82.656 125.329 82.48 125.873 82.128C126.417 81.776 126.833 81.264 127.121 80.592C127.425 79.92 127.577 79.112 127.577 78.168C127.577 76.712 127.249 75.6 126.593 74.832C125.953 74.064 125.081 73.68 123.977 73.68C123.241 73.68 122.601 73.856 122.057 74.208C121.529 74.544 121.113 75.048 120.809 75.72C120.521 76.376 120.377 77.192 120.377 78.168C120.377 79.608 120.705 80.72 121.361 81.504C122.017 82.272 122.889 82.656 123.977 82.656ZM136.017 84.216C134.865 84.216 133.985 83.864 133.377 83.16C132.769 82.456 132.465 81.448 132.465 80.136V67.896C132.465 67.576 132.545 67.336 132.705 67.176C132.865 67 133.105 66.912 133.425 66.912C133.729 66.912 133.969 67 134.145 67.176C134.321 67.336 134.409 67.576 134.409 67.896V79.992C134.409 80.856 134.577 81.504 134.913 81.936C135.265 82.352 135.777 82.56 136.449 82.56C136.593 82.56 136.721 82.552 136.833 82.536C136.945 82.52 137.057 82.512 137.169 82.512C137.345 82.496 137.465 82.536 137.529 82.632C137.609 82.728 137.649 82.92 137.649 83.208C137.649 83.496 137.585 83.712 137.457 83.856C137.329 84 137.121 84.096 136.833 84.144C136.705 84.16 136.569 84.176 136.425 84.192C136.281 84.208 136.145 84.216 136.017 84.216ZM143.118 84.216C141.966 84.216 141.086 83.864 140.478 83.16C139.87 82.456 139.566 81.448 139.566 80.136V67.896C139.566 67.576 139.646 67.336 139.806 67.176C139.966 67 140.206 66.912 140.526 66.912C140.83 66.912 141.07 67 141.246 67.176C141.422 67.336 141.51 67.576 141.51 67.896V79.992C141.51 80.856 141.678 81.504 142.014 81.936C142.366 82.352 142.878 82.56 143.55 82.56C143.694 82.56 143.822 82.552 143.934 82.536C144.046 82.52 144.158 82.512 144.27 82.512C144.446 82.496 144.566 82.536 144.63 82.632C144.71 82.728 144.75 82.92 144.75 83.208C144.75 83.496 144.686 83.712 144.558 83.856C144.43 84 144.222 84.096 143.934 84.144C143.806 84.16 143.67 84.176 143.526 84.192C143.382 84.208 143.246 84.216 143.118 84.216ZM151.807 84.216C150.575 84.216 149.511 83.976 148.615 83.496C147.735 83 147.047 82.304 146.551 81.408C146.071 80.512 145.831 79.44 145.831 78.192C145.831 76.976 146.071 75.92 146.551 75.024C147.031 74.112 147.687 73.4 148.519 72.888C149.367 72.376 150.343 72.12 151.447 72.12C152.231 72.12 152.935 72.256 153.559 72.528C154.183 72.784 154.711 73.16 155.143 73.656C155.591 74.152 155.927 74.752 156.151 75.456C156.391 76.16 156.511 76.952 156.511 77.832C156.511 78.088 156.439 78.28 156.295 78.408C156.151 78.52 155.943 78.576 155.671 78.576H147.319V77.304H155.215L154.831 77.616C154.831 76.752 154.703 76.024 154.447 75.432C154.191 74.824 153.815 74.36 153.319 74.04C152.839 73.72 152.231 73.56 151.495 73.56C150.679 73.56 149.983 73.752 149.407 74.136C148.847 74.504 148.423 75.024 148.135 75.696C147.847 76.352 147.703 77.12 147.703 78V78.144C147.703 79.616 148.055 80.736 148.759 81.504C149.479 82.272 150.495 82.656 151.807 82.656C152.351 82.656 152.887 82.584 153.415 82.44C153.959 82.296 154.487 82.056 154.999 81.72C155.223 81.576 155.423 81.512 155.599 81.528C155.791 81.528 155.943 81.584 156.055 81.696C156.167 81.792 156.239 81.92 156.271 82.08C156.319 82.224 156.303 82.384 156.223 82.56C156.159 82.736 156.023 82.888 155.815 83.016C155.287 83.4 154.663 83.696 153.943 83.904C153.223 84.112 152.511 84.216 151.807 84.216ZM164.484 88.536C163.636 88.536 162.804 88.432 161.988 88.224C161.188 88.032 160.46 87.72 159.804 87.288C159.612 87.176 159.484 87.04 159.42 86.88C159.372 86.72 159.364 86.56 159.396 86.4C159.428 86.256 159.5 86.12 159.612 85.992C159.724 85.88 159.852 85.808 159.996 85.776C160.156 85.744 160.316 85.768 160.476 85.848C161.18 86.28 161.852 86.576 162.492 86.736C163.132 86.896 163.764 86.976 164.388 86.976C165.524 86.976 166.38 86.672 166.956 86.064C167.548 85.456 167.844 84.576 167.844 83.424V80.712H168.084C167.844 81.64 167.332 82.376 166.548 82.92C165.78 83.464 164.876 83.736 163.836 83.736C162.764 83.736 161.836 83.496 161.052 83.016C160.268 82.52 159.66 81.832 159.228 80.952C158.812 80.072 158.604 79.056 158.604 77.904C158.604 77.04 158.724 76.256 158.964 75.552C159.204 74.832 159.548 74.224 159.996 73.728C160.46 73.216 161.012 72.824 161.652 72.552C162.308 72.264 163.036 72.12 163.836 72.12C164.892 72.12 165.804 72.392 166.572 72.936C167.34 73.464 167.836 74.184 168.06 75.096L167.82 75.384V73.152C167.82 72.832 167.9 72.592 168.06 72.432C168.236 72.256 168.476 72.168 168.78 72.168C169.1 72.168 169.34 72.256 169.5 72.432C169.66 72.592 169.74 72.832 169.74 73.152V83.16C169.74 84.936 169.292 86.272 168.396 87.168C167.516 88.08 166.212 88.536 164.484 88.536ZM164.196 82.152C164.948 82.152 165.596 81.984 166.14 81.648C166.684 81.296 167.1 80.8 167.388 80.16C167.692 79.52 167.844 78.768 167.844 77.904C167.844 76.608 167.516 75.584 166.86 74.832C166.204 74.064 165.316 73.68 164.196 73.68C163.46 73.68 162.82 73.856 162.276 74.208C161.732 74.544 161.308 75.032 161.004 75.672C160.716 76.296 160.572 77.04 160.572 77.904C160.572 79.2 160.9 80.232 161.556 81C162.212 81.768 163.092 82.152 164.196 82.152ZM178.643 84.216C177.411 84.216 176.347 83.976 175.451 83.496C174.571 83 173.883 82.304 173.387 81.408C172.907 80.512 172.667 79.44 172.667 78.192C172.667 76.976 172.907 75.92 173.387 75.024C173.867 74.112 174.523 73.4 175.355 72.888C176.203 72.376 177.179 72.12 178.283 72.12C179.067 72.12 179.771 72.256 180.395 72.528C181.019 72.784 181.547 73.16 181.979 73.656C182.427 74.152 182.763 74.752 182.987 75.456C183.227 76.16 183.347 76.952 183.347 77.832C183.347 78.088 183.275 78.28 183.131 78.408C182.987 78.52 182.779 78.576 182.507 78.576H174.155V77.304H182.051L181.667 77.616C181.667 76.752 181.539 76.024 181.283 75.432C181.027 74.824 180.651 74.36 180.155 74.04C179.675 73.72 179.067 73.56 178.331 73.56C177.515 73.56 176.819 73.752 176.243 74.136C175.683 74.504 175.259 75.024 174.971 75.696C174.683 76.352 174.539 77.12 174.539 78V78.144C174.539 79.616 174.891 80.736 175.595 81.504C176.315 82.272 177.331 82.656 178.643 82.656C179.187 82.656 179.723 82.584 180.251 82.44C180.795 82.296 181.323 82.056 181.835 81.72C182.059 81.576 182.259 81.512 182.435 81.528C182.627 81.528 182.779 81.584 182.891 81.696C183.003 81.792 183.075 81.92 183.107 82.08C183.155 82.224 183.139 82.384 183.059 82.56C182.995 82.736 182.859 82.888 182.651 83.016C182.123 83.4 181.499 83.696 180.779 83.904C180.059 84.112 179.347 84.216 178.643 84.216ZM193.595 84.168C193.275 84.168 193.027 84.08 192.851 83.904C192.691 83.712 192.611 83.456 192.611 83.136V68.088C192.611 67.752 192.699 67.504 192.875 67.344C193.051 67.168 193.299 67.08 193.619 67.08H199.307C201.115 67.08 202.507 67.528 203.483 68.424C204.459 69.304 204.947 70.552 204.947 72.168C204.947 73.768 204.459 75.016 203.483 75.912C202.507 76.808 201.115 77.256 199.307 77.256H194.579V83.136C194.579 83.456 194.499 83.712 194.339 83.904C194.179 84.08 193.931 84.168 193.595 84.168ZM194.579 75.6H199.067C200.363 75.6 201.339 75.312 201.995 74.736C202.667 74.144 203.003 73.288 203.003 72.168C203.003 71.032 202.667 70.176 201.995 69.6C201.339 69.008 200.363 68.712 199.067 68.712H194.579V75.6ZM208.285 84.168C207.965 84.168 207.717 84.08 207.541 83.904C207.381 83.728 207.301 83.48 207.301 83.16V73.152C207.301 72.832 207.381 72.592 207.541 72.432C207.701 72.256 207.933 72.168 208.237 72.168C208.541 72.168 208.773 72.256 208.933 72.432C209.109 72.592 209.197 72.832 209.197 73.152V75.096H208.957C209.213 74.152 209.701 73.424 210.421 72.912C211.141 72.4 212.029 72.128 213.085 72.096C213.325 72.08 213.517 72.136 213.661 72.264C213.805 72.376 213.885 72.576 213.901 72.864C213.917 73.136 213.853 73.352 213.709 73.512C213.565 73.672 213.341 73.768 213.037 73.8L212.653 73.848C211.565 73.944 210.725 74.296 210.133 74.904C209.557 75.496 209.269 76.312 209.269 77.352V83.16C209.269 83.48 209.181 83.728 209.005 83.904C208.845 84.08 208.605 84.168 208.285 84.168ZM221.018 84.216C219.786 84.216 218.722 83.976 217.826 83.496C216.946 83 216.258 82.304 215.762 81.408C215.282 80.512 215.042 79.44 215.042 78.192C215.042 76.976 215.282 75.92 215.762 75.024C216.242 74.112 216.898 73.4 217.73 72.888C218.578 72.376 219.554 72.12 220.658 72.12C221.442 72.12 222.146 72.256 222.77 72.528C223.394 72.784 223.922 73.16 224.354 73.656C224.802 74.152 225.138 74.752 225.362 75.456C225.602 76.16 225.722 76.952 225.722 77.832C225.722 78.088 225.65 78.28 225.506 78.408C225.362 78.52 225.154 78.576 224.882 78.576H216.53V77.304H224.426L224.042 77.616C224.042 76.752 223.914 76.024 223.658 75.432C223.402 74.824 223.026 74.36 222.53 74.04C222.05 73.72 221.442 73.56 220.706 73.56C219.89 73.56 219.194 73.752 218.618 74.136C218.058 74.504 217.634 75.024 217.346 75.696C217.058 76.352 216.914 77.12 216.914 78V78.144C216.914 79.616 217.266 80.736 217.97 81.504C218.69 82.272 219.706 82.656 221.018 82.656C221.562 82.656 222.098 82.584 222.626 82.44C223.17 82.296 223.698 82.056 224.21 81.72C224.434 81.576 224.634 81.512 224.81 81.528C225.002 81.528 225.154 81.584 225.266 81.696C225.378 81.792 225.45 81.92 225.482 82.08C225.53 82.224 225.514 82.384 225.434 82.56C225.37 82.736 225.234 82.888 225.026 83.016C224.498 83.4 223.874 83.696 223.154 83.904C222.434 84.112 221.722 84.216 221.018 84.216ZM229.495 88.488C229.175 88.488 228.935 88.4 228.775 88.224C228.615 88.064 228.535 87.824 228.535 87.504V73.152C228.535 72.832 228.615 72.592 228.775 72.432C228.935 72.256 229.167 72.168 229.471 72.168C229.791 72.168 230.031 72.256 230.191 72.432C230.367 72.592 230.455 72.832 230.455 73.152V75.432L230.191 75.096C230.447 74.184 230.951 73.464 231.703 72.936C232.471 72.392 233.383 72.12 234.439 72.12C235.479 72.12 236.383 72.368 237.151 72.864C237.935 73.344 238.535 74.04 238.951 74.952C239.383 75.848 239.599 76.92 239.599 78.168C239.599 79.4 239.383 80.472 238.951 81.384C238.535 82.28 237.943 82.976 237.175 83.472C236.407 83.968 235.495 84.216 234.439 84.216C233.383 84.216 232.479 83.952 231.727 83.424C230.975 82.88 230.463 82.16 230.191 81.264H230.479V87.504C230.479 87.824 230.391 88.064 230.215 88.224C230.039 88.4 229.799 88.488 229.495 88.488ZM234.031 82.656C234.767 82.656 235.399 82.48 235.927 82.128C236.471 81.776 236.887 81.264 237.175 80.592C237.479 79.92 237.631 79.112 237.631 78.168C237.631 76.712 237.303 75.6 236.647 74.832C236.007 74.064 235.135 73.68 234.031 73.68C233.311 73.68 232.679 73.856 232.135 74.208C231.591 74.544 231.167 75.048 230.863 75.72C230.575 76.376 230.431 77.192 230.431 78.168C230.431 79.608 230.759 80.72 231.415 81.504C232.071 82.272 232.943 82.656 234.031 82.656ZM256.299 84.216C254.635 84.216 253.211 83.864 252.027 83.16C250.843 82.456 249.931 81.456 249.291 80.16C248.667 78.864 248.355 77.32 248.355 75.528C248.355 74.184 248.531 72.984 248.883 71.928C249.251 70.856 249.771 69.952 250.443 69.216C251.131 68.464 251.971 67.888 252.963 67.488C253.955 67.072 255.067 66.864 256.299 66.864C257.291 66.864 258.235 67.008 259.131 67.296C260.027 67.568 260.803 67.976 261.459 68.52C261.667 68.68 261.803 68.864 261.867 69.072C261.947 69.264 261.955 69.456 261.891 69.648C261.843 69.824 261.747 69.976 261.603 70.104C261.475 70.216 261.315 70.272 261.123 70.272C260.931 70.272 260.715 70.192 260.475 70.032C259.899 69.568 259.267 69.224 258.579 69C257.891 68.776 257.147 68.664 256.347 68.664C255.083 68.664 254.011 68.936 253.131 69.48C252.251 70.008 251.587 70.784 251.139 71.808C250.691 72.832 250.467 74.072 250.467 75.528C250.467 76.984 250.691 78.232 251.139 79.272C251.587 80.296 252.251 81.08 253.131 81.624C254.011 82.152 255.083 82.416 256.347 82.416C257.131 82.416 257.875 82.304 258.579 82.08C259.283 81.84 259.931 81.488 260.523 81.024C260.763 80.864 260.979 80.792 261.171 80.808C261.363 80.808 261.523 80.864 261.651 80.976C261.779 81.088 261.867 81.232 261.915 81.408C261.979 81.584 261.979 81.768 261.915 81.96C261.867 82.152 261.747 82.32 261.555 82.464C260.883 83.04 260.091 83.48 259.179 83.784C258.283 84.072 257.323 84.216 256.299 84.216ZM268.867 84.216C267.731 84.216 266.747 83.968 265.915 83.472C265.083 82.976 264.435 82.28 263.971 81.384C263.523 80.472 263.299 79.4 263.299 78.168C263.299 77.24 263.427 76.408 263.683 75.672C263.939 74.92 264.315 74.28 264.811 73.752C265.307 73.224 265.891 72.824 266.563 72.552C267.251 72.264 268.019 72.12 268.867 72.12C270.003 72.12 270.987 72.368 271.819 72.864C272.651 73.36 273.291 74.064 273.739 74.976C274.203 75.872 274.435 76.936 274.435 78.168C274.435 79.096 274.307 79.928 274.051 80.664C273.795 81.4 273.419 82.04 272.923 82.584C272.427 83.112 271.835 83.52 271.147 83.808C270.475 84.08 269.715 84.216 268.867 84.216ZM268.867 82.656C269.587 82.656 270.219 82.48 270.763 82.128C271.307 81.776 271.723 81.264 272.011 80.592C272.315 79.92 272.467 79.112 272.467 78.168C272.467 76.712 272.139 75.6 271.483 74.832C270.843 74.064 269.971 73.68 268.867 73.68C268.131 73.68 267.491 73.856 266.947 74.208C266.419 74.544 266.003 75.048 265.699 75.72C265.411 76.376 265.267 77.192 265.267 78.168C265.267 79.608 265.595 80.72 266.251 81.504C266.907 82.272 267.779 82.656 268.867 82.656ZM278.363 84.168C278.043 84.168 277.803 84.08 277.643 83.904C277.483 83.728 277.403 83.48 277.403 83.16V73.152C277.403 72.832 277.483 72.592 277.643 72.432C277.803 72.256 278.035 72.168 278.339 72.168C278.643 72.168 278.875 72.256 279.035 72.432C279.211 72.592 279.299 72.832 279.299 73.152V75.264L279.035 74.928C279.339 74.032 279.827 73.344 280.499 72.864C281.187 72.368 282.003 72.12 282.947 72.12C283.939 72.12 284.739 72.36 285.347 72.84C285.971 73.304 286.387 74.032 286.595 75.024H286.235C286.523 74.128 287.035 73.424 287.771 72.912C288.523 72.384 289.395 72.12 290.387 72.12C291.267 72.12 291.987 72.288 292.547 72.624C293.123 72.96 293.555 73.472 293.843 74.16C294.131 74.832 294.275 75.688 294.275 76.728V83.16C294.275 83.48 294.187 83.728 294.011 83.904C293.851 84.08 293.611 84.168 293.291 84.168C292.987 84.168 292.747 84.08 292.571 83.904C292.411 83.728 292.331 83.48 292.331 83.16V76.824C292.331 75.752 292.147 74.968 291.779 74.472C291.411 73.96 290.787 73.704 289.907 73.704C288.947 73.704 288.187 74.04 287.627 74.712C287.083 75.368 286.811 76.264 286.811 77.4V83.16C286.811 83.48 286.723 83.728 286.547 83.904C286.387 84.08 286.147 84.168 285.827 84.168C285.523 84.168 285.283 84.08 285.107 83.904C284.947 83.728 284.867 83.48 284.867 83.16V76.824C284.867 75.752 284.675 74.968 284.291 74.472C283.923 73.96 283.307 73.704 282.443 73.704C281.483 73.704 280.723 74.04 280.163 74.712C279.619 75.368 279.347 76.264 279.347 77.4V83.16C279.347 83.832 279.019 84.168 278.363 84.168ZM298.918 84.168C298.598 84.168 298.358 84.08 298.198 83.904C298.038 83.728 297.958 83.48 297.958 83.16V73.152C297.958 72.832 298.038 72.592 298.198 72.432C298.358 72.256 298.59 72.168 298.894 72.168C299.198 72.168 299.43 72.256 299.59 72.432C299.766 72.592 299.854 72.832 299.854 73.152V75.264L299.59 74.928C299.894 74.032 300.382 73.344 301.054 72.864C301.742 72.368 302.558 72.12 303.502 72.12C304.494 72.12 305.294 72.36 305.902 72.84C306.526 73.304 306.942 74.032 307.15 75.024H306.79C307.078 74.128 307.59 73.424 308.326 72.912C309.078 72.384 309.95 72.12 310.942 72.12C311.822 72.12 312.542 72.288 313.102 72.624C313.678 72.96 314.11 73.472 314.398 74.16C314.686 74.832 314.83 75.688 314.83 76.728V83.16C314.83 83.48 314.742 83.728 314.566 83.904C314.406 84.08 314.166 84.168 313.846 84.168C313.542 84.168 313.302 84.08 313.126 83.904C312.966 83.728 312.886 83.48 312.886 83.16V76.824C312.886 75.752 312.702 74.968 312.334 74.472C311.966 73.96 311.342 73.704 310.462 73.704C309.502 73.704 308.742 74.04 308.182 74.712C307.638 75.368 307.366 76.264 307.366 77.4V83.16C307.366 83.48 307.278 83.728 307.102 83.904C306.942 84.08 306.702 84.168 306.382 84.168C306.078 84.168 305.838 84.08 305.662 83.904C305.502 83.728 305.422 83.48 305.422 83.16V76.824C305.422 75.752 305.23 74.968 304.846 74.472C304.478 73.96 303.862 73.704 302.998 73.704C302.038 73.704 301.278 74.04 300.718 74.712C300.174 75.368 299.902 76.264 299.902 77.4V83.16C299.902 83.832 299.574 84.168 298.918 84.168ZM322.593 84.216C321.649 84.216 320.865 84.048 320.241 83.712C319.633 83.36 319.169 82.84 318.849 82.152C318.545 81.464 318.393 80.608 318.393 79.584V73.152C318.393 72.816 318.473 72.568 318.633 72.408C318.809 72.248 319.049 72.168 319.353 72.168C319.673 72.168 319.913 72.248 320.073 72.408C320.249 72.568 320.337 72.816 320.337 73.152V79.56C320.337 80.584 320.545 81.352 320.961 81.864C321.393 82.36 322.065 82.608 322.977 82.608C323.969 82.608 324.777 82.272 325.401 81.6C326.025 80.928 326.337 80.048 326.337 78.96V73.152C326.337 72.816 326.417 72.568 326.577 72.408C326.753 72.248 327.001 72.168 327.321 72.168C327.625 72.168 327.857 72.248 328.017 72.408C328.193 72.568 328.281 72.816 328.281 73.152V83.16C328.281 83.832 327.969 84.168 327.345 84.168C327.041 84.168 326.801 84.08 326.625 83.904C326.465 83.728 326.385 83.48 326.385 83.16V80.976L326.697 81.312C326.377 82.256 325.849 82.976 325.113 83.472C324.393 83.968 323.553 84.216 322.593 84.216ZM332.878 84.168C332.558 84.168 332.318 84.08 332.158 83.904C331.998 83.728 331.918 83.48 331.918 83.16V73.152C331.918 72.832 331.998 72.592 332.158 72.432C332.318 72.256 332.55 72.168 332.854 72.168C333.158 72.168 333.39 72.256 333.55 72.432C333.726 72.592 333.814 72.832 333.814 73.152V75.216L333.55 74.928C333.886 74 334.43 73.304 335.182 72.84C335.95 72.36 336.83 72.12 337.822 72.12C338.75 72.12 339.518 72.288 340.126 72.624C340.75 72.96 341.214 73.472 341.518 74.16C341.822 74.832 341.974 75.688 341.974 76.728V83.16C341.974 83.48 341.886 83.728 341.71 83.904C341.55 84.08 341.318 84.168 341.014 84.168C340.694 84.168 340.446 84.08 340.27 83.904C340.11 83.728 340.03 83.48 340.03 83.16V76.848C340.03 75.76 339.814 74.968 339.382 74.472C338.966 73.96 338.294 73.704 337.366 73.704C336.294 73.704 335.438 74.04 334.798 74.712C334.174 75.368 333.862 76.248 333.862 77.352V83.16C333.862 83.832 333.534 84.168 332.878 84.168ZM346.518 84.12C346.198 84.12 345.958 84.032 345.798 83.856C345.638 83.664 345.558 83.4 345.558 83.064V73.248C345.558 72.912 345.638 72.656 345.798 72.48C345.958 72.304 346.198 72.216 346.518 72.216C346.822 72.216 347.062 72.304 347.238 72.48C347.414 72.656 347.502 72.912 347.502 73.248V83.064C347.502 83.4 347.414 83.664 347.238 83.856C347.078 84.032 346.838 84.12 346.518 84.12ZM346.518 69.528C346.118 69.528 345.806 69.424 345.582 69.216C345.358 68.992 345.246 68.696 345.246 68.328C345.246 67.944 345.358 67.656 345.582 67.464C345.806 67.256 346.118 67.152 346.518 67.152C346.934 67.152 347.246 67.256 347.454 67.464C347.678 67.656 347.79 67.944 347.79 68.328C347.79 68.696 347.678 68.992 347.454 69.216C347.246 69.424 346.934 69.528 346.518 69.528ZM355.817 84.216C354.905 84.216 354.137 84.056 353.513 83.736C352.905 83.4 352.449 82.92 352.145 82.296C351.841 81.656 351.689 80.88 351.689 79.968V73.848H350.081C349.809 73.848 349.601 73.784 349.457 73.656C349.312 73.512 349.24 73.32 349.24 73.08C349.24 72.84 349.312 72.656 349.457 72.528C349.601 72.4 349.809 72.336 350.081 72.336H351.689V69.576C351.689 69.256 351.777 69.016 351.953 68.856C352.129 68.68 352.369 68.592 352.673 68.592C352.977 68.592 353.209 68.68 353.369 68.856C353.545 69.016 353.633 69.256 353.633 69.576V72.336H356.657C356.929 72.336 357.137 72.4 357.281 72.528C357.425 72.656 357.497 72.84 357.497 73.08C357.497 73.32 357.425 73.512 357.281 73.656C357.137 73.784 356.929 73.848 356.657 73.848H353.633V79.776C353.633 80.688 353.825 81.384 354.209 81.864C354.593 82.328 355.217 82.56 356.081 82.56C356.385 82.56 356.641 82.528 356.849 82.464C357.073 82.4 357.257 82.368 357.401 82.368C357.545 82.352 357.665 82.4 357.761 82.512C357.857 82.624 357.905 82.816 357.905 83.088C357.905 83.28 357.865 83.456 357.785 83.616C357.721 83.776 357.601 83.888 357.425 83.952C357.233 84.016 356.977 84.072 356.657 84.12C356.353 84.184 356.073 84.216 355.817 84.216ZM362.26 88.488C362.02 88.488 361.828 88.424 361.684 88.296C361.54 88.168 361.452 87.992 361.42 87.768C361.404 87.56 361.444 87.344 361.54 87.12L363.196 83.4V84.24L358.588 73.536C358.492 73.296 358.46 73.072 358.492 72.864C358.524 72.656 358.62 72.488 358.78 72.36C358.94 72.232 359.164 72.168 359.452 72.168C359.708 72.168 359.908 72.224 360.052 72.336C360.196 72.448 360.324 72.648 360.436 72.936L364.372 82.584H363.724L367.708 72.936C367.836 72.648 367.972 72.448 368.116 72.336C368.26 72.224 368.468 72.168 368.74 72.168C368.996 72.168 369.188 72.232 369.316 72.36C369.46 72.488 369.54 72.656 369.556 72.864C369.588 73.056 369.556 73.272 369.46 73.512L363.316 87.72C363.188 88.008 363.044 88.208 362.884 88.32C362.74 88.432 362.532 88.488 362.26 88.488Z"
        fill="white" />
</svg>
